<svg width="75" height="76" viewBox="0 0 75 76" fill="none" xmlns="http://www.w3.org/2000/svg">
<path d="M28.6749 75.1543L28.0798 74.1122L31.6529 70.6898L6.26233 26.229L1.49904 27.5674L0.903954 26.5253L20.7029 15.2186L21.298 16.2606L17.7249 19.683L30.0234 41.2187L44.9595 32.6891L32.6609 11.1534L27.8976 12.4917L27.3025 11.4497L47.1015 0.142926L47.6966 1.18497L44.1235 4.60739L69.514 49.0682L74.2773 47.7298L74.8724 48.7719L55.0735 60.0786L54.4784 59.0366L58.0515 55.6142L45.9513 34.4258L31.0152 42.9555L43.1154 64.1438L47.8787 62.8055L48.4738 63.8475L28.6749 75.1543Z" fill="#C9B9C0"/>
</svg>
