<svg width="133" height="100" viewBox="0 0 133 100" fill="none" xmlns="http://www.w3.org/2000/svg">
<path d="M27.8792 22.3835L19.5619 75.3342L31.462 82.0623L31.0896 84.4332L1.05784 79.716L1.43025 77.3451L14.82 74.5894L25.3718 7.41307L14.6799 3.30421L15.0523 0.933281L36.3907 4.28502C41.554 5.09606 45.5425 6.85628 48.3562 9.5657C51.1698 12.2751 53.3686 15.8057 54.9525 20.1576L70.4655 61.6271L93.6777 26.2404C96.3419 22.3399 99.3674 19.5759 102.754 17.9484C106.141 16.3209 110.627 15.9458 116.212 16.823L132.018 19.3058L131.646 21.6767L121.79 22.558L110.865 92.1052L119.977 95.9658L119.604 98.3368L75.347 91.385L75.7194 89.0141L85.5755 88.1328L94.2652 32.8111L56.7635 90.0856L52.97 89.4897L27.8792 22.3835Z" fill="#C9B9C0"/>
</svg>
