<svg width="50" height="50" viewBox="0 0 50 50" fill="none" xmlns="http://www.w3.org/2000/svg">
<path d="M21.866 46.0875C15.3328 45.0613 10.4854 42.4103 7.32393 38.1346C4.22341 33.8145 3.18625 28.3878 4.21246 21.8546C5.23867 15.3214 7.88549 10.5003 12.1529 7.39154C16.4813 4.23832 21.9121 3.17482 28.4453 4.20103C34.9786 5.22725 39.7954 7.90041 42.896 12.2205C46.0575 16.4962 47.1251 21.9007 46.0989 28.4339C45.0727 34.9671 42.3954 39.8104 38.067 42.9636C33.7996 46.0724 28.3992 47.1137 21.866 46.0875ZM22.1143 44.5068C24.2218 44.8379 26.2185 43.6399 28.1045 40.9128C30.0432 38.1941 31.5629 33.331 32.6636 26.3236C33.7643 19.3161 33.8088 14.2213 32.797 11.0391C31.8379 7.86518 30.3046 6.11269 28.1971 5.78166C26.0896 5.45062 24.0665 6.64448 22.1278 9.36325C20.2418 12.0903 18.7484 16.9575 17.6477 23.9649C16.547 30.9723 16.4762 36.063 17.4354 39.237C18.4471 42.4192 20.0068 44.1758 22.1143 44.5068Z" fill="#C9B9C0"/>
</svg>
