<svg width="120" height="120" viewBox="0 0 120 120" fill="none" xmlns="http://www.w3.org/2000/svg">
<path d="M38.6982 118.465C28.3785 120.688 20.2644 120.496 14.356 117.891C8.42594 115.186 4.81331 110.828 3.5181 104.818C2.74097 101.213 2.81547 97.4234 3.74159 93.4508C4.14071 91.8974 4.74021 90.301 5.5401 88.6613C9.43206 86.7749 13.6963 84.9132 18.3327 83.076C28.7648 78.9425 38.0956 75.7798 46.3251 73.5879L45.0299 67.5783C42.6337 56.4605 39.6298 49.0895 36.0179 45.4654C32.4061 41.8413 27.7949 40.6335 22.1842 41.842C20.0802 42.2952 18.3307 42.9341 16.9358 43.7586L14.9937 44.963L19.8507 67.4991L17.9941 68.3707C16.4343 68.9163 15.1033 69.3078 14.0012 69.5452C10.5947 70.2789 7.62357 69.8708 5.08782 68.3207C2.63067 66.649 1.03513 64.1103 0.301173 60.7049C-0.691823 56.0975 0.770682 51.6949 4.68869 47.497C8.70688 43.2776 15.3248 40.1752 24.5423 38.1898C32.6578 36.4418 39.9565 37.2279 46.4384 40.5483C49.2747 42.0336 51.7141 43.8664 53.7567 46.0467C54.5411 43.3623 55.9089 40.7094 57.8602 38.0881C62.1989 32.4371 68.1254 28.8024 75.6397 27.1838C82.4527 25.7164 88.7555 25.7737 94.5483 27.3559C100.341 28.938 105.187 31.7199 109.085 35.7015C112.962 39.5829 115.494 44.278 116.682 49.7868C117.135 51.8902 117.273 53.747 117.096 55.3574L116.798 57.6226C112.684 59.452 108.187 61.2067 103.307 62.8867C93.1106 66.655 82.6523 69.6937 71.9318 72.0028L72.6442 75.3081C75.2407 86.3828 78.5884 93.8894 82.6874 97.8278C86.7863 101.766 91.6411 103.131 97.2518 101.923C101.159 101.081 104.572 99.4026 107.49 96.8876C110.486 94.2508 112.612 91.225 113.868 87.8101C115.203 84.2736 115.525 80.9027 114.834 77.6975L118.591 76.8883C119.454 80.8947 119.073 84.9598 117.445 89.0835C115.818 93.2072 113.087 96.8348 109.254 99.9663C105.399 102.998 100.666 105.118 95.0556 106.326C86.4391 108.182 78.8684 107.35 72.3433 103.829C69.285 102.287 66.8132 100.304 64.9279 97.8798C63.3281 101.159 61.3915 104.092 59.1181 106.678C53.6203 112.788 46.8136 116.717 38.6982 118.465ZM71.1223 68.2468C77.5345 66.8657 82.6905 65.4931 86.5902 64.1291C88.2719 63.662 90.0213 63.0232 91.8386 62.2125C91.7877 61.4898 91.8115 60.3842 91.9101 58.8956C91.9793 56.7845 91.7548 54.527 91.2368 52.1231C89.4451 43.8098 87.037 37.9875 84.0125 34.6561C80.9664 31.2246 77.8904 29.8434 74.7844 30.5124C71.5783 31.2029 69.4629 34.2788 68.4383 39.74C67.4922 45.0795 68.3329 54.3314 70.9604 67.4956L71.1223 68.2468ZM40.8944 114.062C45.1024 113.155 48.1519 110.035 50.0428 104.702C50.7348 102.561 51.1685 99.9526 51.344 96.8753L47.1346 77.344C42.5258 78.3367 38.1714 79.5366 34.0713 80.9438C31.0517 82.0134 29.0017 82.717 27.9212 83.0546C27.6577 84.2642 27.4805 85.8745 27.3897 87.8855C27.2081 91.9074 27.5166 95.7713 28.3154 99.4773C29.5242 105.086 31.2717 109.06 33.5578 111.397C35.8439 113.734 38.2894 114.623 40.8944 114.062Z" fill="#C0ADB6"/>
<path d="M41.6691 40.9094C42.5112 38.8034 43.0012 36.3997 43.139 33.6982C43.4809 28.217 41.8307 23.2656 38.1886 18.8442L37.837 21.1637C37.5244 22.6439 36.7393 24.1271 35.4818 25.6135C33.4962 27.9604 30.8815 29.3057 27.6377 29.6494C24.3817 29.8486 21.58 28.9558 19.2323 26.9708C16.8847 24.9858 15.5782 22.405 15.3127 19.2283C15.0351 15.9072 15.8891 13.0732 17.8746 10.7263C20.1911 7.98819 23.0556 6.58569 26.468 6.51876C29.8684 6.30744 33.1728 7.55817 36.3812 10.271C43.5806 16.3582 47.2293 23.469 47.3274 31.6035C47.4846 35.2254 46.9076 38.7633 45.5964 42.2171L41.6691 40.9094Z" fill="#C0ADB6"/>
<path d="M61.4344 38.1878C59.9115 36.5067 58.615 34.4239 57.5449 31.9395C55.3154 26.9202 55.1378 21.7043 57.0121 16.2919L58.1495 18.3438C58.9581 19.6226 60.2107 20.7397 61.9072 21.6954C64.5859 23.2043 67.5055 23.5553 70.6661 22.7484C73.7877 21.8018 76.1032 19.9896 77.6126 17.3117C79.122 14.6338 79.4479 11.7597 78.5904 8.68932C77.6939 5.4794 75.9063 3.11998 73.2276 1.61105C70.1024 -0.149373 66.9287 -0.467061 63.7065 0.657982C60.4453 1.64346 57.7833 3.96611 55.7205 7.62593C51.0917 15.8382 50.1479 23.7741 52.889 31.4337C54.0031 34.8838 55.7762 37.9995 58.2083 40.7807L61.4344 38.1878Z" fill="#C0ADB6"/>
</svg>
