<svg width="227" height="113" viewBox="0 0 227 113" fill="none" xmlns="http://www.w3.org/2000/svg">
<path d="M41.3816 112.6C28.5073 112.6 18.3918 107.997 11.0351 98.7919C3.67836 89.5864 0 75.5225 0 56.6001C0 38.1891 3.98489 24.2786 11.9547 14.8686C20.0266 5.35626 31.1128 0.600098 45.2132 0.600098C51.2416 0.600098 56.5037 1.62293 60.9995 3.66859C65.5975 5.61197 69.0715 8.1179 71.4215 11.1864C73.8738 14.2549 75.0999 17.3745 75.0999 20.5453C75.0999 24.0229 74.0271 26.8357 71.8813 28.9837C69.8378 31.0293 67.079 32.0521 63.605 32.0521C62.1745 32.0521 60.7441 31.9499 59.3136 31.7453L57.4744 31.285V6.73709L54.5624 5.66311C52.3145 4.84484 50.2199 4.43571 48.2785 4.43571C43.2718 4.43571 39.1337 5.76539 35.864 8.42475C32.6966 11.0841 30.2443 15.9937 28.5073 23.1535C26.8725 30.3133 26.0551 40.4394 26.0551 53.5316C27.179 51.7928 28.5584 50.2585 30.1932 48.9289C34.0759 45.8604 38.5717 44.3261 43.6806 44.3261C51.1395 44.3261 57.6277 45.7581 63.1452 48.622C68.7649 51.3837 73.0564 55.2704 76.0195 60.2823C78.9826 65.2942 80.4642 70.9709 80.4642 77.3124C80.4642 88.2567 77.0413 96.8996 70.1954 103.241C63.4518 109.48 53.8471 112.6 41.3816 112.6ZM41.3816 109.532C43.4251 109.532 45.4176 108.509 47.3589 106.463C49.4025 104.417 51.0884 101.093 52.4167 96.4905C53.745 91.8878 54.4091 86.0065 54.4091 78.8467C54.4091 71.6869 53.6939 65.8056 52.2634 61.2028C50.9351 56.6001 49.1981 53.2759 47.0524 51.2302C45.0089 49.1846 42.8631 48.1617 40.6153 48.1617C36.426 48.1617 33.0542 50.2074 30.4998 54.2987C28.0475 58.3901 26.8214 64.7827 26.8214 73.4768C26.8214 86.4668 28.2008 95.7234 30.9596 101.247C33.8205 106.77 37.2945 109.532 41.3816 109.532Z" fill="white"/>
<path d="M95.1142 110.299V107.997L105.843 104.929V20.6987L89.7499 32.0521L86.6846 28.2165L114.579 2.90147H131.131V104.929L141.86 107.997V110.299H95.1142Z" fill="white"/>
<path d="M181.787 112.6C174.737 112.6 168.708 111.628 163.702 109.685C158.797 107.742 155.068 105.236 152.513 102.167C150.061 99.0987 148.835 95.928 148.835 92.6549C148.835 89.1773 149.857 86.4156 151.9 84.37C154.046 82.222 156.856 81.148 160.33 81.148C161.147 81.148 161.964 81.2503 162.782 81.4549C163.599 81.5572 164.161 81.6083 164.468 81.6083L166.46 81.9152V106.463C166.562 106.463 167.635 106.872 169.679 107.691C172.335 108.406 175.35 108.764 178.721 108.764C185.874 108.764 191.34 106.617 195.121 102.321C199.004 97.9225 200.945 91.3764 200.945 82.6823C200.945 73.7837 199.055 67.0841 195.274 62.5837C191.596 58.0832 186.589 55.833 180.254 55.833H172.591V51.9974H180.254C184.852 51.9974 188.684 49.9517 191.749 45.8604C194.814 41.7691 196.347 35.8878 196.347 28.2165C196.347 20.5453 194.763 14.664 191.596 10.5727C188.428 6.48137 184.392 4.43571 179.488 4.43571C176.831 4.43571 174.277 4.84484 171.825 5.66311C171.518 5.76539 170.496 6.12338 168.759 6.73709V31.285L166.767 31.7453C165.132 31.9499 163.753 32.0521 162.629 32.0521C159.155 32.0521 156.345 31.0293 154.199 28.9837C152.156 26.8357 151.134 24.0229 151.134 20.5453C151.134 17.3745 152.36 14.2549 154.812 11.1864C157.264 8.1179 160.841 5.61197 165.541 3.66859C170.343 1.62293 176.014 0.600098 182.553 0.600098C191.136 0.600098 198.391 1.87864 204.317 4.43571C210.345 6.89051 214.841 10.2147 217.804 14.4083C220.869 18.6019 222.402 23.2047 222.402 28.2165C222.402 34.0467 220.92 38.7006 217.957 42.1782C214.994 45.5535 211.112 48.264 206.309 50.3097C201.609 52.1508 196.245 53.2248 190.216 53.5316V54.2987C196.96 54.6056 203.091 55.7818 208.608 57.8275C220.869 62.7371 227 71.022 227 82.6823C227 91.6832 223.271 98.9453 215.812 104.469C208.455 109.89 197.113 112.6 181.787 112.6Z" fill="white"/>
</svg>
